<mxfile host="app.diagrams.net" modified="2024-04-18T12:55:06.217Z" agent="Mozilla/5.0 (Windows NT 10.0; Win64; x64) AppleWebKit/537.36 (KHTML, like Gecko) Chrome/123.0.0.0 Safari/537.36" version="23.1.4" etag="9ztKH80gShxPYBmy0PPV" type="github">
  <diagram name="Страница — 1" id="q-L_tiSFWnodjyS70Ku8">
    <mxGraphModel>
      <root>
        <mxCell id="0" />
        <mxCell id="1" parent="0" />
      </root>
    </mxGraphModel>
  </diagram>
</mxfile>
